<?xml version="1.0" standalone="no"?>
<!DOCTYPE svg PUBLIC "-//W3C//DTD SVG 20010904//EN"
 "http://www.w3.org/TR/2001/REC-SVG-20010904/DTD/svg10.dtd">
<svg version="1.0" xmlns="http://www.w3.org/2000/svg"
 width="980.000000pt" height="980.000000pt" viewBox="0 0 980.000000 980.000000"
 preserveAspectRatio="xMidYMid meet">

<g transform="translate(0.000000,980.000000) scale(0.100000,-0.100000)"
fill="#000000" stroke="none">
<path d="M4560 9789 c-1035 -75 -1998 -463 -2800 -1128 -150 -123 -501 -475
-622 -621 -881 -1068 -1270 -2403 -1098 -3765 119 -934 501 -1801 1124 -2545
98 -117 370 -393 496 -504 1328 -1166 3158 -1531 4825 -962 895 305 1700 879
2281 1627 735 946 1100 2126 1024 3314 -70 1094 -491 2109 -1216 2935 -112
128 -386 398 -509 501 -763 642 -1665 1026 -2665 1134 -174 19 -664 27 -840
14z m412 -610 c89 -19 166 -66 258 -159 224 -224 407 -626 569 -1250 43 -163
91 -379 91 -405 0 -13 -112 -15 -990 -15 -843 0 -990 2 -990 14 0 8 16 85 35
173 163 731 375 1233 625 1483 140 141 261 188 402 159z m-1084 -196 c-209
-363 -411 -920 -543 -1498 -16 -66 -31 -123 -35 -128 -3 -4 -435 -6 -959 -5
l-953 3 87 115 c534 704 1239 1213 2065 1490 118 40 354 108 382 110 3 0 -16
-39 -44 -87z m2065 66 c937 -239 1763 -791 2362 -1579 l87 -115 -482 -3 c-265
-1 -695 -1 -957 0 l-475 3 -63 250 c-143 573 -316 1034 -513 1378 -28 48 -48
87 -45 87 2 0 41 -9 86 -21z m-2757 -2341 c-33 -163 -115 -985 -116 -1160 l0
-38 -1205 0 -1205 0 0 25 c0 40 48 278 87 430 57 225 186 584 264 738 l19 37
1081 0 1081 0 -6 -32z m2813 -60 c38 -290 71 -661 95 -1065 l4 -73 -1209 0
-1210 0 5 48 c3 26 8 101 11 167 11 229 47 624 86 924 l12 91 1097 0 1097 0
12 -92z m2787 15 c96 -210 185 -461 248 -703 36 -139 86 -387 86 -427 l0 -23
-1203 0 -1203 0 -17 248 c-23 328 -71 772 -103 950 l-6 32 1081 0 1082 0 35
-77z m-5736 -1845 c0 -153 20 -621 36 -838 20 -292 77 -796 99 -897 l5 -23
-1078 0 -1079 0 -13 28 c-238 508 -371 1021 -410 1572 -5 80 -10 166 -10 193
l0 47 1225 0 1225 0 0 -82z m3057 -265 c-6 -337 -21 -601 -52 -943 -16 -177
-52 -490 -60 -527 l-5 -23 -1099 0 -1099 0 -6 28 c-9 43 -44 341 -61 522 -31
336 -46 604 -52 943 l-6 347 1223 0 1223 0 -6 -347z m3073 300 c0 -27 -5 -115
-10 -198 -35 -533 -174 -1063 -410 -1567 l-13 -28 -1079 0 -1078 0 5 23 c8 37
43 303 59 452 38 350 60 703 72 1123 l7 242 1223 0 1224 0 0 -47z m-5875
-2425 c78 -334 124 -506 202 -743 103 -318 248 -656 371 -868 36 -62 46 -87
34 -83 -9 2 -69 18 -132 35 -257 67 -486 154 -755 286 -308 151 -549 305 -815
519 -152 123 -419 382 -547 531 -98 113 -263 326 -263 338 0 4 427 7 950 7
l950 0 5 -22z m2585 14 c0 -20 -64 -301 -100 -437 -161 -612 -353 -1022 -582
-1240 -165 -159 -326 -191 -503 -103 -78 40 -222 184 -297 298 -145 220 -288
567 -397 963 -37 136 -103 410 -117 490 l-6 37 1001 0 c550 0 1001 -4 1001 -8z
m2490 1 c0 -14 -173 -235 -278 -354 -485 -552 -1070 -956 -1746 -1208 -121
-45 -384 -126 -473 -145 l-32 -7 50 87 c210 364 414 921 544 1484 15 63 29
123 31 133 5 16 59 17 955 17 522 0 949 -3 949 -7z"/>
</g>
</svg>
